<mxfile host="app.diagrams.net" modified="2024-01-18T21:00:45.812Z" agent="Mozilla/5.0 (Macintosh; Intel Mac OS X 10_15_7) AppleWebKit/537.36 (KHTML, like Gecko) Chrome/120.0.0.0 Safari/537.36" etag="EF3lK8QjpDaXdAl12dX2" version="22.1.18" type="device">
  <diagram name="Page-1" id="WUfxCw7k20nSSl1Xdzqs">
    <mxGraphModel dx="1306" dy="847" grid="1" gridSize="10" guides="1" tooltips="1" connect="1" arrows="1" fold="1" page="1" pageScale="1" pageWidth="850" pageHeight="1100" math="0" shadow="0">
      <root>
        <mxCell id="0" />
        <mxCell id="1" parent="0" />
        <mxCell id="lUQxEbkGX05Dne8QrO-H-1" value="1" style="ellipse;whiteSpace=wrap;html=1;aspect=fixed;" vertex="1" parent="1">
          <mxGeometry x="170" y="230" width="80" height="80" as="geometry" />
        </mxCell>
        <mxCell id="lUQxEbkGX05Dne8QrO-H-2" value="2" style="ellipse;whiteSpace=wrap;html=1;aspect=fixed;" vertex="1" parent="1">
          <mxGeometry x="170" y="430" width="80" height="80" as="geometry" />
        </mxCell>
        <mxCell id="lUQxEbkGX05Dne8QrO-H-3" value="2" style="ellipse;whiteSpace=wrap;html=1;aspect=fixed;" vertex="1" parent="1">
          <mxGeometry x="390" y="190" width="80" height="80" as="geometry" />
        </mxCell>
        <mxCell id="lUQxEbkGX05Dne8QrO-H-4" value="1" style="ellipse;whiteSpace=wrap;html=1;aspect=fixed;" vertex="1" parent="1">
          <mxGeometry x="390" y="30" width="80" height="80" as="geometry" />
        </mxCell>
        <mxCell id="lUQxEbkGX05Dne8QrO-H-5" value="4" style="ellipse;whiteSpace=wrap;html=1;aspect=fixed;" vertex="1" parent="1">
          <mxGeometry x="390" y="510" width="80" height="80" as="geometry" />
        </mxCell>
        <mxCell id="lUQxEbkGX05Dne8QrO-H-6" value="3" style="ellipse;whiteSpace=wrap;html=1;aspect=fixed;" vertex="1" parent="1">
          <mxGeometry x="390" y="350" width="80" height="80" as="geometry" />
        </mxCell>
        <mxCell id="lUQxEbkGX05Dne8QrO-H-7" value="1" style="ellipse;whiteSpace=wrap;html=1;aspect=fixed;" vertex="1" parent="1">
          <mxGeometry x="630" y="270" width="80" height="80" as="geometry" />
        </mxCell>
        <mxCell id="lUQxEbkGX05Dne8QrO-H-8" value="" style="endArrow=none;html=1;rounded=0;" edge="1" parent="1" source="lUQxEbkGX05Dne8QrO-H-1" target="lUQxEbkGX05Dne8QrO-H-4">
          <mxGeometry width="50" height="50" relative="1" as="geometry">
            <mxPoint x="340" y="290" as="sourcePoint" />
            <mxPoint x="390" y="240" as="targetPoint" />
          </mxGeometry>
        </mxCell>
        <mxCell id="lUQxEbkGX05Dne8QrO-H-9" value="" style="endArrow=none;html=1;rounded=0;" edge="1" parent="1" source="lUQxEbkGX05Dne8QrO-H-1" target="lUQxEbkGX05Dne8QrO-H-3">
          <mxGeometry width="50" height="50" relative="1" as="geometry">
            <mxPoint x="250" y="253" as="sourcePoint" />
            <mxPoint x="410" y="107" as="targetPoint" />
          </mxGeometry>
        </mxCell>
        <mxCell id="lUQxEbkGX05Dne8QrO-H-10" value="" style="endArrow=none;html=1;rounded=0;" edge="1" parent="1" source="lUQxEbkGX05Dne8QrO-H-1" target="lUQxEbkGX05Dne8QrO-H-6">
          <mxGeometry width="50" height="50" relative="1" as="geometry">
            <mxPoint x="259" y="273" as="sourcePoint" />
            <mxPoint x="401" y="247" as="targetPoint" />
          </mxGeometry>
        </mxCell>
        <mxCell id="lUQxEbkGX05Dne8QrO-H-11" value="" style="endArrow=none;html=1;rounded=0;" edge="1" parent="1" source="lUQxEbkGX05Dne8QrO-H-1" target="lUQxEbkGX05Dne8QrO-H-5">
          <mxGeometry width="50" height="50" relative="1" as="geometry">
            <mxPoint x="255" y="299" as="sourcePoint" />
            <mxPoint x="405" y="381" as="targetPoint" />
          </mxGeometry>
        </mxCell>
        <mxCell id="lUQxEbkGX05Dne8QrO-H-12" value="" style="endArrow=none;html=1;rounded=0;" edge="1" parent="1" source="lUQxEbkGX05Dne8QrO-H-2" target="lUQxEbkGX05Dne8QrO-H-5">
          <mxGeometry width="50" height="50" relative="1" as="geometry">
            <mxPoint x="245" y="311" as="sourcePoint" />
            <mxPoint x="415" y="529" as="targetPoint" />
          </mxGeometry>
        </mxCell>
        <mxCell id="lUQxEbkGX05Dne8QrO-H-13" value="" style="endArrow=none;html=1;rounded=0;" edge="1" parent="1" source="lUQxEbkGX05Dne8QrO-H-2" target="lUQxEbkGX05Dne8QrO-H-6">
          <mxGeometry width="50" height="50" relative="1" as="geometry">
            <mxPoint x="258" y="494" as="sourcePoint" />
            <mxPoint x="402" y="546" as="targetPoint" />
          </mxGeometry>
        </mxCell>
        <mxCell id="lUQxEbkGX05Dne8QrO-H-14" value="" style="endArrow=none;html=1;rounded=0;" edge="1" parent="1" source="lUQxEbkGX05Dne8QrO-H-2" target="lUQxEbkGX05Dne8QrO-H-3">
          <mxGeometry width="50" height="50" relative="1" as="geometry">
            <mxPoint x="258" y="466" as="sourcePoint" />
            <mxPoint x="402" y="414" as="targetPoint" />
          </mxGeometry>
        </mxCell>
        <mxCell id="lUQxEbkGX05Dne8QrO-H-15" value="" style="endArrow=none;html=1;rounded=0;" edge="1" parent="1" source="lUQxEbkGX05Dne8QrO-H-2" target="lUQxEbkGX05Dne8QrO-H-4">
          <mxGeometry width="50" height="50" relative="1" as="geometry">
            <mxPoint x="247" y="450" as="sourcePoint" />
            <mxPoint x="413" y="269" as="targetPoint" />
          </mxGeometry>
        </mxCell>
        <mxCell id="lUQxEbkGX05Dne8QrO-H-16" value="" style="endArrow=none;html=1;rounded=0;" edge="1" parent="1" source="lUQxEbkGX05Dne8QrO-H-7" target="lUQxEbkGX05Dne8QrO-H-4">
          <mxGeometry width="50" height="50" relative="1" as="geometry">
            <mxPoint x="239" y="445" as="sourcePoint" />
            <mxPoint x="421" y="115" as="targetPoint" />
          </mxGeometry>
        </mxCell>
        <mxCell id="lUQxEbkGX05Dne8QrO-H-17" value="" style="endArrow=none;html=1;rounded=0;" edge="1" parent="1" source="lUQxEbkGX05Dne8QrO-H-7" target="lUQxEbkGX05Dne8QrO-H-6">
          <mxGeometry width="50" height="50" relative="1" as="geometry">
            <mxPoint x="652" y="292" as="sourcePoint" />
            <mxPoint x="468" y="108" as="targetPoint" />
          </mxGeometry>
        </mxCell>
      </root>
    </mxGraphModel>
  </diagram>
</mxfile>
